<svg width="69" height="49" viewBox="0 0 69 49" fill="none" xmlns="http://www.w3.org/2000/svg">
<g clip-path="url(#clip0_2_1787)">
<path d="M58.8095 45.0926V18.5998L40.6843 36.7305V45.0926H30.805V27.04L12.6798 8.90918V45.0926H0V48.6093H16.1804V17.3494L18.6697 19.8502V49.0001H22.1702V23.3669L27.3044 28.5248V48.6093H44.1849V38.2154L49.5524 32.8231V49.0001H53.053V29.3063L55.3089 27.1181V48.6093H69V45.0926H58.8095Z" fill="#FF5C00"/>
<path d="M35.6279 5.0016L51.5749 20.9442L54.0642 18.4434L35.6279 0L22.0924 13.5981L24.5817 16.0989L35.6279 5.0016Z" fill="#FF5C00"/>
<path d="M34.6945 13.6763H31.5829V16.8023H34.6945V13.6763Z" fill="#FF5C00"/>
<path d="M39.8287 13.6763H36.717V16.8023H39.8287V13.6763Z" fill="#FF5C00"/>
<path d="M34.6945 18.5996H31.5829V21.7256H34.6945V18.5996Z" fill="#FF5C00"/>
<path d="M39.8287 18.5996H36.717V21.7256H39.8287V18.5996Z" fill="#FF5C00"/>
</g>
<defs>
<clipPath id="clip0_2_1787">
<rect width="69" height="49" fill="white"/>
</clipPath>
</defs>
</svg>
