<svg width="663" height="510" viewBox="0 0 663 510" fill="none" xmlns="http://www.w3.org/2000/svg">
<path d="M260.776 8.57532H214.175V189.456H260.776V8.57532Z" fill="#E53310"/>
<path d="M260.776 8.57532V189.456H241.665C244.021 161.103 251.613 67.3811 248.733 44.2788C246.639 27.4772 228.051 21.9641 214.175 20.389V8.57532H260.776Z" fill="#C41F08"/>
<path d="M61.2861 132.487V216.758H275.701V132.487L161.294 16.9761C160.77 17.5011 62.0715 131.7 61.2861 132.487Z" fill="#F26641"/>
<path d="M53.1677 148.502L45.3137 141.413L161.03 12.7758L285.647 136.163L278.316 143.514L161.553 28.0023L53.1677 148.502Z" fill="#44140B"/>
<path d="M307.9 278.189H18.0869V500.811H307.9V278.189Z" fill="#F26641"/>
<path d="M313.661 425.729H10.2335V500.549H313.661V425.729Z" fill="#B27E60"/>
<path d="M322.561 263.75H0.0224609V279.502H322.561V263.75Z" fill="#EFCFCB"/>
<path d="M10.2335 263.751H317.326L275.961 216.496H53.9543L10.2335 263.751Z" fill="#683310"/>
<path d="M263.655 221.484H49.2404L53.9528 216.496H275.96L317.324 263.751H300.569L263.655 221.484Z" fill="#893D13"/>
<path opacity="0.53" d="M218.102 224.372V263.751H219.411C218.626 245.374 218.102 224.372 218.102 224.372Z" fill="#FFFEFD"/>
<path d="M148.203 111.223H95.057V200.745H148.203V111.223Z" fill="#541C0A"/>
<path d="M140.61 118.574H99.7686V187.356H140.61V118.574Z" fill="#F4C225"/>
<path opacity="0.39" d="M132.233 148.764H98.7226V117.524H142.182V188.406H132.233V148.764Z" fill="#53627C"/>
<path d="M98.7226 188.406H117.834H119.405H142.182V117.524H98.7226V188.406ZM101.079 119.886H117.834V136.951H101.079V119.886ZM117.834 163.728H101.079V138.263H117.834V163.728ZM139.825 119.886V136.951H119.405V119.886H139.825ZM139.825 163.728H119.405V138.263H139.825V163.728ZM119.405 186.305V165.303H139.825V186.305H119.405ZM101.079 186.305V165.303H117.834V186.305H101.079Z" fill="#E5E5DA"/>
<path d="M155.009 192.869H85.8938V200.745H155.009V192.869Z" fill="#563926"/>
<path d="M153.176 108.335H89.8205V113.323H153.176V108.335Z" fill="#563926"/>
<path d="M150.297 106.498H93.7481V108.335H150.297V106.498Z" fill="#8E5536"/>
<path d="M104.48 305.23H39.5537V414.441H104.48V305.23Z" fill="#541C0A"/>
<path d="M95.3181 314.418H45.3141V398.164H95.3181V314.418Z" fill="#F4C225"/>
<path opacity="0.39" d="M85.1071 350.909H44.0043V313.106H97.1499V399.739H85.1071V350.909Z" fill="#53627C"/>
<path d="M44.0043 399.739H67.3046H69.399H97.1499V313.106H44.0043V399.739ZM47.1459 315.731H67.5664V336.47H47.1459V315.731ZM67.5664 369.549H47.1459V338.308H67.5664V369.549ZM94.2701 315.731V336.47H69.399V315.731H94.2701ZM94.2701 369.549H69.399V338.308H94.2701V369.549ZM69.399 396.851V371.386H94.2701V396.851H69.399ZM47.1459 396.851V371.386H67.5664V396.851H47.1459Z" fill="#E5E5DA"/>
<path d="M113.119 404.727H28.5576V414.441H113.119V404.727Z" fill="#563926"/>
<path d="M110.502 301.817H33.2702V307.855H110.502V301.817Z" fill="#563926"/>
<path d="M107.36 299.454H38.2448V301.555H107.36V299.454Z" fill="#8E5536"/>
<path d="M202.394 305.23H137.468V414.441H202.394V305.23Z" fill="#541C0A"/>
<path d="M193.231 314.418H143.227V398.164H193.231V314.418Z" fill="#F4C225"/>
<path opacity="0.39" d="M183.022 350.909H141.919V313.106H195.065V399.739H183.022V350.909Z" fill="#53627C"/>
<path d="M141.919 399.739H165.22H167.314H195.065V313.106H141.919V399.739ZM145.061 315.731H165.481V336.47H145.061V315.731ZM165.481 369.549H145.061V338.308H165.481V369.549ZM192.185 315.731V336.47H167.314V315.731H192.185ZM192.185 369.549H167.314V338.308H192.185V369.549ZM167.314 396.851V371.386H192.185V396.851H167.314ZM145.061 396.851V371.386H165.481V396.851H145.061Z" fill="#E5E5DA"/>
<path d="M210.772 404.727H126.211V414.441H210.772V404.727Z" fill="#563926"/>
<path d="M208.155 301.817H130.923V307.855H208.155V301.817Z" fill="#563926"/>
<path d="M205.274 299.454H136.159V301.555H205.274V299.454Z" fill="#8E5536"/>
<path d="M236.167 111.223H183.021V200.745H236.167V111.223Z" fill="#541C0A"/>
<path d="M228.314 118.574H187.473V187.356H228.314V118.574Z" fill="#F4C225"/>
<path opacity="0.39" d="M220.199 148.764H186.688V117.524H230.147V188.406H220.199V148.764Z" fill="#53627C"/>
<path d="M186.688 188.406H205.8H207.37H230.147V117.524H186.688V188.406ZM189.044 119.886H205.8V136.95H189.044V119.886ZM205.8 163.728H189.044V138.263H205.8V163.728ZM227.791 119.886V136.95H207.37V119.886H227.791ZM227.791 163.728H207.37V138.263H227.791V163.728ZM207.37 186.305V165.303H227.791V186.305H207.37ZM189.044 186.305V165.303H205.8V186.305H189.044Z" fill="#E5E5DA"/>
<path d="M242.975 192.869H173.859V200.745H242.975V192.869Z" fill="#563926"/>
<path d="M240.882 108.335H177.526V113.323H240.882V108.335Z" fill="#563926"/>
<path d="M238.262 106.498H181.713V108.335H238.262V106.498Z" fill="#8E5536"/>
<path d="M163.648 92.0586C175.167 92.0586 184.592 81.8201 184.592 69.4814C184.592 57.1427 175.167 46.9042 163.648 46.9042C152.129 46.9042 142.704 57.1427 142.704 69.4814C142.704 82.0826 152.129 92.0586 163.648 92.0586Z" fill="#6D5C50"/>
<path d="M163.648 92.0586C175.167 92.0586 184.592 81.8201 184.592 69.4814C184.592 57.1427 175.167 46.9042 163.648 46.9042C152.129 46.9042 142.704 57.1427 142.704 69.4814C142.704 82.0826 152.129 92.0586 163.648 92.0586Z" fill="#6D5C50"/>
<path d="M167.837 53.4673C156.318 53.4673 146.893 63.7058 146.893 76.0446C146.893 79.4574 147.678 82.6077 148.726 85.233C145.06 81.0325 142.704 75.5195 142.704 69.4814C142.704 57.1427 152.129 46.9042 163.648 46.9042C172.026 46.9042 179.356 52.4172 182.76 60.0305C179.095 56.0926 173.597 53.4673 167.837 53.4673Z" fill="#3D2F26"/>
<path d="M163.648 45.329C151.344 45.329 141.134 56.0925 141.134 69.4814C141.134 82.8702 151.082 93.6338 163.648 93.6338C176.215 93.6338 186.163 82.8702 186.163 69.4814C186.163 56.0925 176.215 45.329 163.648 45.329ZM163.648 90.4834C152.915 90.4834 144.013 81.0325 144.013 69.4814C144.013 57.9302 152.915 48.4793 163.648 48.4793C174.382 48.4793 183.283 57.9302 183.283 69.4814C183.283 81.0325 174.382 90.4834 163.648 90.4834Z" fill="#E5E5DA"/>
<path d="M158.411 328.332L172.025 339.883V328.332H158.411Z" fill="#332D29"/>
<path d="M229.099 288.69L217.842 315.993H212.606C218.627 305.755 228.575 289.478 229.099 288.69Z" fill="#E08658"/>
<path opacity="0.51" d="M194.539 189.193L194.015 189.718L194.277 189.456L194.539 189.193Z" fill="#6D5C50"/>
<path d="M628.868 218.859L594.833 241.436L593.786 218.859H628.868Z" fill="#332D29"/>
<path d="M594.835 218.859H172.027V502.912H594.835V218.859Z" fill="#F26641"/>
<path opacity="0.51" d="M594.835 218.859H172.027L201.348 241.436H594.835V218.859Z" fill="#6D5C50"/>
<path d="M221.508 115.686L150.298 210.983L621.016 209.671L565.253 115.686H221.508Z" fill="#683310"/>
<path d="M229.361 122.774H518.651L596.929 200.482H172.027L229.361 122.774Z" fill="#893D13"/>
<path d="M628.869 209.671H147.156V218.597H628.869V209.671Z" fill="#F2BFBB"/>
<path opacity="0.39" d="M524.15 256.138H488.545V313.631H524.15V256.138Z" fill="#53627C"/>
<path d="M528.076 249.574H484.617V319.931H528.076V249.574Z" fill="#EDDDD3"/>
<path d="M523.104 256.925H489.593V312.581H523.104V256.925Z" fill="#87A1C6"/>
<path opacity="0.39" d="M496.661 281.34H523.888V256.137H488.545V313.631H496.661V281.34Z" fill="#53627C"/>
<path d="M523.888 256.137H488.283V313.631H506.871H508.18H523.888V256.137ZM522.056 271.626H508.442V257.975H522.056V271.626ZM508.442 272.939H522.056V293.679H508.442V272.939ZM507.133 257.975V271.626H490.639V257.975H507.133ZM490.378 272.939H506.871V293.679H490.378V272.939ZM490.378 311.793V294.729H506.871V311.53H490.378V311.793ZM508.442 311.793V294.729H522.056V311.53H508.442V311.793Z" fill="#E5E5DA"/>
<path d="M466.292 249.574H422.833V319.931H466.292V249.574Z" fill="#EDDDD3"/>
<path d="M461.318 256.925H427.808V312.581H461.318V256.925Z" fill="#87A1C6"/>
<path opacity="0.39" d="M434.876 281.34H462.366V256.137H426.761V313.631H434.876V281.34Z" fill="#53627C"/>
<path d="M462.366 256.137H426.761V313.631H445.349H446.658H462.366V256.137ZM460.271 271.626H446.658V257.975H460.271V271.626ZM446.658 272.939H460.271V293.679H446.658V272.939ZM445.349 257.975V271.626H428.855V257.975H445.349ZM428.855 272.939H445.349V293.679H428.855V272.939ZM428.855 311.793V294.729H445.349V311.53H428.855V311.793ZM446.658 311.793V294.729H460.271V311.53H446.658V311.793Z" fill="#E5E5DA"/>
<path d="M586.457 249.574H542.998V319.931H586.457V249.574Z" fill="#EDDDD3"/>
<path d="M581.483 256.925H547.973V312.581H581.483V256.925Z" fill="#87A1C6"/>
<path opacity="0.39" d="M555.303 281.34H582.53V256.137H547.187V313.631H555.303V281.34Z" fill="#53627C"/>
<path d="M582.53 256.137H547.187V313.631H565.775H567.084H582.792V256.137H582.53ZM580.435 271.626H566.822V257.975H580.435V271.626ZM566.822 272.939H580.435V293.679H566.822V272.939ZM565.513 257.975V271.626H549.019V257.975H565.513ZM549.019 272.939H565.513V293.679H549.019V272.939ZM549.019 311.793V294.729H565.513V311.53H549.019V311.793ZM566.822 311.793V294.729H580.435V311.53H566.822V311.793Z" fill="#E5E5DA"/>
<path opacity="0.43" d="M396.389 211.771L423.616 239.598L426.234 272.939L477.809 328.332L452.676 355.635L460.53 433.868L469.955 438.593L484.616 502.912H405.29L394.556 221.484L396.389 211.771Z" fill="#3A1407"/>
<path d="M436.184 327.282H172.027V502.912H436.184V327.282Z" fill="#F99F62"/>
<path d="M664.999 369.549H436.185V341.984H607.141L664.999 369.549Z" fill="#893D13"/>
<path d="M664.999 369.549H436.185V376.112H664.999V369.549Z" fill="#EFCFCB"/>
<path d="M662.64 477.972H441.942V502.649H662.64V477.972Z" fill="#C69473"/>
<path opacity="0.43" d="M484.354 502.912H441.942V477.972H475.191L484.354 502.912Z" fill="#3A1407"/>
<path d="M436.185 339.883L452.679 328.332H436.185V339.883Z" fill="#332D29"/>
<path d="M452.415 315.994H158.413V328.332H452.415V315.994Z" fill="#EFCFCB"/>
<path opacity="0.53" d="M201.088 275.827L163.388 315.993H443.515L403.46 278.452L201.088 275.827Z" fill="#E08658"/>
<path d="M443.515 315.993H163.388L201.088 275.827H403.46L443.515 315.993Z" fill="#683310"/>
<path d="M212.345 282.128H409.743L403.46 275.827H201.088L163.388 315.993H178.573L212.345 282.128Z" fill="#893D13"/>
<path d="M396.651 212.033V275.827H201.086V212.033L305.545 121.199L340.102 155.59L396.651 212.033Z" fill="#F99F62"/>
<path opacity="0.51" d="M340.103 155.59L303.974 173.179L271.773 209.67L261.039 234.873L201.348 241.436V212.033L305.545 121.199L340.103 155.59Z" fill="#6D5C50"/>
<path d="M303.453 180.53C292.981 180.53 284.341 172.654 284.341 162.678C284.341 152.965 292.981 144.827 303.453 144.827C313.925 144.827 322.564 152.702 322.564 162.678C322.564 172.654 313.925 180.53 303.453 180.53Z" fill="#6D5C50"/>
<path d="M303.453 180.53C292.981 180.53 284.341 172.654 284.341 162.678C284.341 152.965 292.981 144.827 303.453 144.827C313.925 144.827 322.564 152.702 322.564 162.678C322.564 172.654 313.925 180.53 303.453 180.53Z" fill="#6D5C50"/>
<path d="M299.526 150.077C309.998 150.077 318.637 157.953 318.637 167.929C318.637 170.554 318.113 172.917 316.804 175.28C320.208 172.129 322.302 167.666 322.302 162.941C322.302 153.228 313.663 145.089 303.191 145.089C295.337 145.089 288.792 149.29 285.65 155.59C289.315 152.177 294.29 150.077 299.526 150.077Z" fill="#3D2F26"/>
<path d="M303.451 143.776C292.193 143.776 283.03 152.177 283.03 162.678C283.03 173.179 292.193 181.58 303.451 181.58C314.708 181.58 323.871 173.179 323.871 162.678C323.871 152.177 314.708 143.776 303.451 143.776ZM303.451 179.217C293.502 179.217 285.648 171.867 285.648 162.678C285.648 153.49 293.764 146.139 303.451 146.139C313.399 146.139 321.253 153.49 321.253 162.678C321.253 171.867 313.137 179.217 303.451 179.217Z" fill="#E5E5DA"/>
<path d="M274.391 202.32H230.932V272.677H274.391V202.32Z" fill="#EDDDD3"/>
<path d="M269.417 209.671H235.906V265.326H269.417V209.671Z" fill="#87A1C6"/>
<path opacity="0.39" d="M242.974 233.823H270.464V208.62H234.859V266.114H242.974V233.823Z" fill="#53627C"/>
<path d="M270.464 208.62H234.859V266.114H253.447H254.756H270.464V208.62ZM268.369 224.11H254.756V210.458H268.369V224.11ZM254.756 225.422H268.369V246.162H254.756V225.422ZM253.447 210.458V224.11H236.953V210.458H253.447ZM236.953 225.422H253.447V246.162H236.953V225.422ZM236.953 264.276V247.474H253.447V264.276H236.953ZM254.756 264.276V247.474H268.369V264.276H254.756Z" fill="#E5E5DA"/>
<path d="M367.329 202.32H323.87V272.677H367.329V202.32Z" fill="#EDDDD3"/>
<path d="M362.355 209.671H328.845V265.326H362.355V209.671Z" fill="#87A1C6"/>
<path opacity="0.39" d="M335.913 233.823H363.402V208.62H327.797V266.114H335.913V233.823Z" fill="#53627C"/>
<path d="M363.402 208.62H327.797V266.114H346.385H347.694H363.402V208.62ZM361.307 224.11H347.694V210.458H361.307V224.11ZM347.694 225.422H361.307V246.162H347.694V225.422ZM346.385 210.458V224.11H329.891V210.458H346.385ZM329.891 225.422H346.385V246.162H329.891V225.422ZM329.891 264.276V247.474H346.385V264.276H329.891ZM347.694 264.276V247.474H361.307V264.276H347.694Z" fill="#E5E5DA"/>
<path d="M443.515 443.844H166.791V502.912H443.515V443.844Z" fill="#E0A380"/>
<path opacity="0.51" d="M556.087 464.583H555.826V382.15H484.092V464.583H482.521C480.427 464.583 478.594 466.159 478.594 467.996V470.096H560.014V467.996C560.014 466.159 558.182 464.583 556.087 464.583Z" fill="#6D5C50"/>
<path d="M546.139 382.675H484.616V465.109H546.139V382.675Z" fill="#6E6E7F"/>
<path d="M497.444 395.539H546.139V382.675H484.616V465.109H497.444V395.539Z" fill="#565672"/>
<path d="M547.186 462.483V381.625H483.306V462.221C480.688 462.483 478.594 464.846 478.594 467.734H550.851C551.113 465.108 549.28 463.271 547.186 462.483ZM513.937 424.154V443.581H499.8V424.154H513.937ZM499.538 422.579V403.677H513.675V422.579H499.538ZM531.74 422.579H515.508V403.677H531.74V422.579ZM531.74 424.154V443.581H515.508V424.154H531.74ZM531.74 445.419V461.958H515.508V445.419H531.74ZM533.572 462.221V445.681H545.091V462.221H533.572ZM545.091 443.844H533.572V424.417H545.091V443.844ZM545.091 422.579H533.572V403.677H545.091V422.579ZM531.74 401.84H515.508V383.725H531.74V401.84ZM513.937 401.84H499.8V383.725H513.937V401.84ZM513.937 445.419V461.958H499.8V445.419H513.937ZM485.663 424.154H497.967V443.581H485.663V424.154ZM497.967 422.579H485.663V403.677H497.967V422.579ZM485.663 445.419H497.967V461.958H485.663V445.419ZM545.091 401.84H533.572V383.725H545.091V401.84ZM497.967 383.725V401.84H485.663V383.725H497.967Z" fill="#BAB99D"/>
<path opacity="0.18" d="M512.891 404.203H500.325V421.529H512.891V404.203Z" fill="#BDDBDB"/>
<path opacity="0.18" d="M530.432 424.68H516.556V442.269H530.432V424.68Z" fill="#BDDBDB"/>
<path opacity="0.18" d="M530.955 384.776H516.556V401.052H530.955V384.776Z" fill="#BDDBDB"/>
<path opacity="0.18" d="M530.955 404.203H516.556V420.217H530.955V404.203Z" fill="#BDDBDB"/>
<path opacity="0.18" d="M512.367 425.205H500.325V442.794H512.367V425.205Z" fill="#BDDBDB"/>
<path opacity="0.18" d="M512.368 446.994H500.848V460.646H512.368V446.994Z" fill="#BDDBDB"/>
<path opacity="0.51" d="M279.102 436.755H278.84V354.322H207.107V436.755H205.536C203.441 436.755 201.609 438.331 201.609 440.168V442.268H283.029V440.168C283.029 438.331 281.458 436.755 279.102 436.755Z" fill="#6D5C50"/>
<path d="M269.153 354.847H207.63V437.28H269.153V354.847Z" fill="#6E6E7F"/>
<path d="M220.458 367.711H269.153V354.847H207.63V437.543H220.458V367.711Z" fill="#565672"/>
<path d="M270.199 434.918V354.06H206.581V434.655C203.963 434.918 201.869 437.28 201.869 440.168H274.126C274.126 437.543 272.555 435.443 270.199 434.918ZM236.95 396.589V416.016H222.813V396.589H236.95ZM222.813 395.014V376.112H236.95V395.014H222.813ZM254.753 395.014H238.521V376.112H254.753V395.014ZM254.753 396.589V416.016H238.521V396.589H254.753ZM254.753 417.853V434.392H238.521V417.853H254.753ZM256.585 434.392V417.853H268.104V434.392H256.585ZM268.104 416.016H256.585V396.589H268.104V416.016ZM268.104 395.014H256.585V376.112H268.104V395.014ZM254.753 374.274H238.521V356.16H254.753V374.274ZM236.95 374.274H222.813V356.16H236.95V374.274ZM236.95 417.853V434.392H222.813V417.853H236.95ZM208.676 396.589H220.98V416.016H208.676V396.589ZM220.98 395.014H208.676V376.112H220.98V395.014ZM208.676 417.853H220.98V434.392H208.676V417.853ZM268.104 374.274H256.585V356.16H268.104V374.274ZM220.98 356.16V374.274H208.676V356.16H220.98Z" fill="#E5E5DA"/>
<path opacity="0.18" d="M235.903 376.637H223.337V393.964H235.903V376.637Z" fill="#BDDBDB"/>
<path opacity="0.18" d="M253.445 397.114H239.569V414.703H253.445V397.114Z" fill="#BDDBDB"/>
<path opacity="0.18" d="M253.968 357.21H239.569V373.486H253.968V357.21Z" fill="#BDDBDB"/>
<path opacity="0.18" d="M253.968 376.637H239.569V392.651H253.968V376.637Z" fill="#BDDBDB"/>
<path opacity="0.18" d="M235.379 397.639H223.337V415.228H235.379V397.639Z" fill="#BDDBDB"/>
<path opacity="0.18" d="M235.381 419.429H223.861V433.08H235.381V419.429Z" fill="#BDDBDB"/>
<path d="M390.367 333.057H324.916V464.846H390.367V333.057Z" fill="#E5E5DA"/>
<path d="M346.908 337.258H331.2V353.272H346.908V337.258Z" fill="#6C607F"/>
<path d="M365.495 337.258H349.787V353.272H365.495V337.258Z" fill="#6C607F"/>
<path d="M384.87 337.258H369.161V353.272H384.87V337.258Z" fill="#6C607F"/>
<path d="M384.608 361.41H334.342V466.158H384.608V361.41Z" fill="#3F2A21"/>
<path d="M357.905 365.611H339.055V400.789H357.905V365.611Z" fill="#54362B"/>
<path d="M381.206 365.611H362.356V400.789H381.206V365.611Z" fill="#54362B"/>
<path d="M381.205 404.202H339.055V409.453H381.205V404.202Z" fill="#54362B"/>
<path d="M357.38 411.553H338.53V461.17H357.38V411.553Z" fill="#54362B"/>
<path d="M380.682 411.553H361.832V461.17H380.682V411.553Z" fill="#54362B"/>
<path d="M406.598 460.908H314.968V470.884H406.598V460.908Z" fill="#938783"/>
<path d="M415.239 471.146H306.068V481.122H415.239V471.146Z" fill="#938783"/>
<path d="M424.401 480.86H296.643V490.836H424.401V480.86Z" fill="#938783"/>
<path d="M435.136 490.311H284.077V500.287H435.136V490.311Z" fill="#938783"/>
<path d="M439.849 500.024H274.914V510H439.849V500.024Z" fill="#938783"/>
<path d="M651.908 450.407H443.514V453.819H651.908V450.407Z" fill="#E5E5DA"/>
<path d="M646.671 376.112H636.984V477.972H646.671V376.112Z" fill="#E5E5DA"/>
<path d="M487.496 376.112H479.642V477.972H487.496V376.112Z" fill="#E5E5DA"/>
<path d="M464.194 452.244H458.173V477.972H464.194V452.244Z" fill="#E5E5DA"/>
<path d="M487.497 452.244H481.476V477.972H487.497V452.244Z" fill="#E5E5DA"/>
<path d="M509.226 452.244H503.204V477.972H509.226V452.244Z" fill="#E5E5DA"/>
<path d="M533.312 452.244H527.29V477.972H533.312V452.244Z" fill="#E5E5DA"/>
<path d="M555.3 452.244H549.279V477.972H555.3V452.244Z" fill="#E5E5DA"/>
<path d="M581.482 452.244H575.46V477.972H581.482V452.244Z" fill="#E5E5DA"/>
<path d="M605.83 452.244H599.809V477.972H605.83V452.244Z" fill="#E5E5DA"/>
<path d="M624.418 452.244H618.396V477.972H624.418V452.244Z" fill="#E5E5DA"/>
<path d="M406.6 225.684L305.545 123.562L191.924 225.159L189.567 222.534L305.545 118.836L408.957 223.059L406.6 225.684Z" fill="#EFCFCB"/>
<path d="M266.01 0.699707H207.105V14.6136H266.01V0.699707Z" fill="#E53310"/>
</svg>
